<svg xmlns="http://www.w3.org/2000/svg" width="1280" height="720" viewBox="0 0 1280 720" role="img" aria-labelledby="title desc">
  <title id="title">Amon Hen Linear delivery loop</title>
  <desc id="desc">A visual workflow showing Linear issue targeting, planning, execution, reconciliation, and CI review gates.</desc>
  <defs>
    <style>
      .mono { font-family: ui-monospace, SFMono-Regular, Menlo, Monaco, Consolas, monospace; }
      .sans { font-family: Inter, ui-sans-serif, system-ui, -apple-system, BlinkMacSystemFont, "Segoe UI", sans-serif; }
    </style>
  </defs>
  <rect width="1280" height="720" fill="#f6f7f2"/>
  <g stroke="#10251f" stroke-opacity="0.08">
    <path d="M0 88h1280M0 176h1280M0 264h1280M0 352h1280M0 440h1280M0 528h1280M0 616h1280"/>
    <path d="M96 0v720M192 0v720M288 0v720M384 0v720M480 0v720M576 0v720M672 0v720M768 0v720M864 0v720M960 0v720M1056 0v720M1152 0v720"/>
  </g>
  <text x="78" y="100" fill="#10251f" font-size="46" font-weight="900" class="sans">Linear delivery that does not drift</text>
  <text x="80" y="138" fill="#587067" font-size="18" font-weight="650" class="sans">Target projects or epics, isolate issue workspaces, retry cleanly, and stop at review or passing CI.</text>

  <g transform="translate(80 198)">
    <rect width="250" height="170" rx="12" fill="#ffffff" stroke="#10251f" stroke-width="2"/>
    <rect x="18" y="18" width="48" height="48" rx="10" fill="#2f7d69"/>
    <text x="34" y="50" fill="#ffffff" font-size="24" font-weight="900" class="sans">1</text>
    <text x="82" y="46" fill="#10251f" font-size="24" font-weight="900" class="sans">Target</text>
    <text x="22" y="98" fill="#30453e" font-size="16" class="sans">Linear project ENG</text>
    <text x="22" y="126" fill="#30453e" font-size="16" class="sans">Epic, team, state, labels</text>
    <text x="22" y="154" fill="#587067" font-size="14" class="mono">--linear-until-complete</text>
  </g>
  <path d="M344 283h118" stroke="#d8b45f" stroke-width="6" stroke-linecap="round"/>
  <path d="M452 271l18 12-18 12z" fill="#d8b45f"/>

  <g transform="translate(480 198)">
    <rect width="250" height="170" rx="12" fill="#ffffff" stroke="#10251f" stroke-width="2"/>
    <rect x="18" y="18" width="48" height="48" rx="10" fill="#d8b45f"/>
    <text x="34" y="50" fill="#10251f" font-size="24" font-weight="900" class="sans">2</text>
    <text x="82" y="46" fill="#10251f" font-size="24" font-weight="900" class="sans">Plan</text>
    <text x="22" y="98" fill="#30453e" font-size="16" class="sans">Codex planner</text>
    <text x="22" y="126" fill="#30453e" font-size="16" class="sans">Claude lead</text>
    <text x="22" y="154" fill="#587067" font-size="14" class="mono">phase prompts + handoff</text>
  </g>
  <path d="M744 283h118" stroke="#d8b45f" stroke-width="6" stroke-linecap="round"/>
  <path d="M852 271l18 12-18 12z" fill="#d8b45f"/>

  <g transform="translate(880 198)">
    <rect width="250" height="170" rx="12" fill="#ffffff" stroke="#10251f" stroke-width="2"/>
    <rect x="18" y="18" width="48" height="48" rx="10" fill="#315fb5"/>
    <text x="34" y="50" fill="#ffffff" font-size="24" font-weight="900" class="sans">3</text>
    <text x="82" y="46" fill="#10251f" font-size="24" font-weight="900" class="sans">Execute</text>
    <text x="22" y="98" fill="#30453e" font-size="16" class="sans">Isolated worktrees</text>
    <text x="22" y="126" fill="#30453e" font-size="16" class="sans">Provider sub-agents</text>
    <text x="22" y="154" fill="#587067" font-size="14" class="mono">tools + media + comments</text>
  </g>

  <g transform="translate(180 438)">
    <rect width="920" height="170" rx="14" fill="#101312" stroke="#10251f" stroke-width="2"/>
    <text x="28" y="44" fill="#d8b45f" font-size="17" font-weight="900" class="mono">delivery console</text>
    <text x="28" y="84" fill="#e8ede4" font-size="18" class="mono">$ amon-hen --deliver-linear --linear-project ENG --linear-completion-gate review-or-ci</text>
    <text x="28" y="122" fill="#9fb2aa" font-size="18" class="mono">LINEAR-104 -> workspace ready -> tests passed -> PR linked -> waiting human review</text>
  </g>
  <g transform="translate(956 472)">
    <rect width="104" height="34" rx="8" fill="#2f7d69"/>
    <text x="22" y="23" fill="#ffffff" font-size="14" font-weight="900" class="sans">review</text>
    <rect y="48" width="104" height="34" rx="8" fill="#d8b45f"/>
    <text x="34" y="71" fill="#10251f" font-size="14" font-weight="900" class="sans">CI</text>
  </g>
</svg>
